<mxfile host="app.diagrams.net" agent="Mozilla/5.0 (Windows NT 10.0; Win64; x64; rv:138.0) Gecko/20100101 Firefox/138.0" version="26.2.8">
  <diagram name="Seite-1" id="YQCEgiZrK64RDbJxEUyN">
    <mxGraphModel dx="1723" dy="933" grid="1" gridSize="10" guides="1" tooltips="1" connect="1" arrows="1" fold="1" page="1" pageScale="1" pageWidth="827" pageHeight="1169" math="0" shadow="0">
      <root>
        <mxCell id="0" />
        <mxCell id="1" parent="0" />
        <mxCell id="7GUp3bZeSzjO9WUExJve-1" value="" style="rounded=0;whiteSpace=wrap;html=1;strokeWidth=3;" vertex="1" parent="1">
          <mxGeometry x="40" y="40" width="750" height="240" as="geometry" />
        </mxCell>
        <mxCell id="7GUp3bZeSzjO9WUExJve-2" value="&lt;font style=&quot;font-size: 30px;&quot;&gt;Nested array&lt;/font&gt;" style="text;html=1;align=center;verticalAlign=middle;resizable=0;points=[];autosize=1;strokeColor=none;fillColor=none;fontSize=20;labelBorderColor=none;" vertex="1" parent="1">
          <mxGeometry x="40" y="40" width="200" height="50" as="geometry" />
        </mxCell>
        <mxCell id="7GUp3bZeSzjO9WUExJve-3" value="" style="rounded=0;whiteSpace=wrap;html=1;strokeWidth=3;" vertex="1" parent="1">
          <mxGeometry x="60" y="120" width="260" height="140" as="geometry" />
        </mxCell>
        <mxCell id="7GUp3bZeSzjO9WUExJve-4" value="" style="rounded=0;whiteSpace=wrap;html=1;strokeWidth=3;" vertex="1" parent="1">
          <mxGeometry x="370" y="120" width="260" height="140" as="geometry" />
        </mxCell>
        <mxCell id="7GUp3bZeSzjO9WUExJve-5" value="&lt;font style=&quot;font-size: 60px;&quot;&gt;. . .&lt;/font&gt;" style="text;html=1;align=center;verticalAlign=middle;resizable=0;points=[];autosize=1;strokeColor=none;fillColor=none;" vertex="1" parent="1">
          <mxGeometry x="660" y="200" width="110" height="90" as="geometry" />
        </mxCell>
        <mxCell id="7GUp3bZeSzjO9WUExJve-6" value="time, source, destination" style="text;html=1;align=center;verticalAlign=middle;resizable=0;points=[];autosize=1;strokeColor=none;fillColor=none;fontSize=23;" vertex="1" parent="1">
          <mxGeometry x="55" y="180" width="270" height="40" as="geometry" />
        </mxCell>
        <mxCell id="7GUp3bZeSzjO9WUExJve-7" value="time, source, destination" style="text;html=1;align=center;verticalAlign=middle;resizable=0;points=[];autosize=1;strokeColor=none;fillColor=none;fontSize=23;" vertex="1" parent="1">
          <mxGeometry x="365" y="180" width="270" height="40" as="geometry" />
        </mxCell>
        <mxCell id="7GUp3bZeSzjO9WUExJve-8" value="&quot;small&quot; array&amp;nbsp;" style="text;html=1;align=center;verticalAlign=middle;resizable=0;points=[];autosize=1;strokeColor=none;fillColor=none;fontSize=20;labelBorderColor=none;" vertex="1" parent="1">
          <mxGeometry x="60" y="120" width="140" height="40" as="geometry" />
        </mxCell>
        <mxCell id="7GUp3bZeSzjO9WUExJve-10" value="&quot;small&quot; array&amp;nbsp;" style="text;html=1;align=center;verticalAlign=middle;resizable=0;points=[];autosize=1;strokeColor=none;fillColor=none;fontSize=20;labelBorderColor=none;" vertex="1" parent="1">
          <mxGeometry x="370" y="120" width="140" height="40" as="geometry" />
        </mxCell>
        <mxCell id="7GUp3bZeSzjO9WUExJve-11" value="&lt;font style=&quot;font-size: 60px;&quot;&gt;,&lt;/font&gt;" style="text;html=1;align=center;verticalAlign=middle;resizable=0;points=[];autosize=1;strokeColor=none;fillColor=none;" vertex="1" parent="1">
          <mxGeometry x="325" y="200" width="40" height="90" as="geometry" />
        </mxCell>
        <mxCell id="7GUp3bZeSzjO9WUExJve-13" value="&lt;font style=&quot;font-size: 60px;&quot;&gt;,&lt;/font&gt;" style="text;html=1;align=center;verticalAlign=middle;resizable=0;points=[];autosize=1;strokeColor=none;fillColor=none;" vertex="1" parent="1">
          <mxGeometry x="630" y="200" width="40" height="90" as="geometry" />
        </mxCell>
        <mxCell id="7GUp3bZeSzjO9WUExJve-14" value="" style="endArrow=none;html=1;rounded=0;strokeWidth=3;strokeColor=light-dark(#808080, #ededed);" edge="1" parent="1">
          <mxGeometry width="50" height="50" relative="1" as="geometry">
            <mxPoint x="57" y="84" as="sourcePoint" />
            <mxPoint x="225" y="84" as="targetPoint" />
          </mxGeometry>
        </mxCell>
        <mxCell id="7GUp3bZeSzjO9WUExJve-15" value="" style="endArrow=none;html=1;rounded=0;strokeWidth=3;strokeColor=light-dark(#808080, #ededed);" edge="1" parent="1">
          <mxGeometry width="50" height="50" relative="1" as="geometry">
            <mxPoint x="73" y="154" as="sourcePoint" />
            <mxPoint x="185" y="154" as="targetPoint" />
          </mxGeometry>
        </mxCell>
        <mxCell id="7GUp3bZeSzjO9WUExJve-16" value="" style="endArrow=none;html=1;rounded=0;strokeWidth=3;strokeColor=light-dark(#808080, #ededed);" edge="1" parent="1">
          <mxGeometry width="50" height="50" relative="1" as="geometry">
            <mxPoint x="383" y="154" as="sourcePoint" />
            <mxPoint x="496" y="154" as="targetPoint" />
          </mxGeometry>
        </mxCell>
      </root>
    </mxGraphModel>
  </diagram>
</mxfile>
